<?xml version="1.0" encoding="utf-8"?>
<!-- Generator: Adobe Illustrator 26.0.2, SVG Export Plug-In . SVG Version: 6.00 Build 0)  -->
<svg version="1.1" xmlns="http://www.w3.org/2000/svg" xmlns:xlink="http://www.w3.org/1999/xlink" x="0px" y="0px"
	 viewBox="0 0 159.3 164.7" style="enable-background:new 0 0 159.3 164.7;" xml:space="preserve">
<style type="text/css">
	.st0{fill:#FFFFFF;}
</style>
<g id="Layer_1">
	<g>
		<path class="st0" d="M78.1,138c-3.3,3.9-9.6,4.5-13.7,0.5c0,0-3.4-3.4-8.2-8.2c-0.5-0.6-1.1-1.1-1.6-1.7
			c-3.9-4.5-3.4-10.6-5.8-15.8c-0.9-1.6-2.4-2.1-4.2-2.4c-4.7-0.9-9.2-1.6-12.8-4.6c-0.6-0.5-1.2-1.1-1.7-1.6
			c-4.8-4.8-8.2-8.2-8.2-8.2c-4-4-3.4-10.3,0.5-13.7c1.4,1.5,3,3,4.7,4.7c1,0.9,2,1.9,3,2.9c6.4,5.4,14.4,6.6,22.7,8.1
			c3.1,0.6,5.9,1.5,7.4,4.3c4.3,9.2,3.4,20,10.4,28c0.9,1.1,1.9,2.1,2.9,3C75.1,135,76.7,136.6,78.1,138z"/>
	</g>
</g>
<g id="Layer_2">
</g>
<g id="Layer_3">
</g>
<g id="Layer_4">
	<path class="st0" d="M128.6,11.7L25.5,39.3c-3.3,0.9-6,2.7-8.1,5c-5.4,6.2-5.9,16.1,0.7,22.7c0,0,2.8,2.8,7.3,7.3
		c0.9,0.9,1.8,1.8,2.8,2.8l4.4,4.4c1,0.9,2,1.9,3,2.9c6.4,5.4,14.4,6.6,22.7,8.1c3.1,0.6,5.9,1.5,7.4,4.3c4.3,9.2,3.4,20,10.4,28
		c0.9,1.1,1.9,2.1,2.9,3l4.4,4.4c6.2,6.2,10.2,10.2,10.2,10.2c6.5,6.5,16.4,6.1,22.6,0.7c2.3-2,4.1-4.8,5-8.1l27.6-103.1
		C152.1,19.6,140.8,8.4,128.6,11.7z"/>
</g>
</svg>
