<?xml version="1.0" encoding="utf-8"?>
<!-- Generator: Adobe Illustrator 26.0.2, SVG Export Plug-In . SVG Version: 6.00 Build 0)  -->
<svg version="1.1" id="Layer_1" xmlns="http://www.w3.org/2000/svg" xmlns:xlink="http://www.w3.org/1999/xlink" x="0px" y="0px"
	 viewBox="0 0 477.9 164.7" style="enable-background:new 0 0 477.9 164.7;" xml:space="preserve">
<style type="text/css">
	.st0{fill:#3AB7BB;}
	.st1{fill:#40B5BC;stroke:#40B5BC;stroke-width:0.4372;stroke-miterlimit:10;}
	.st2{fill:#FFFFFF;}
</style>
<g>
	<path class="st0" d="M80.2,136c-3.3,3.9-9.6,4.5-13.7,0.5c0,0-3.4-3.4-8.2-8.2c-0.5-0.6-1.1-1.1-1.6-1.7
		c-3.9-4.5-3.4-10.6-5.8-15.8c-0.9-1.6-2.4-2.1-4.2-2.4c-4.7-0.9-9.2-1.6-12.8-4.6c-0.6-0.5-1.2-1.1-1.7-1.6C27.4,97.4,24,94,24,94
		c-4-4-3.4-10.3,0.5-13.7c1.4,1.5,3,3,4.7,4.7c1,0.9,2,1.9,3,2.9c6.4,5.4,14.4,6.6,22.7,8.1c3.1,0.6,5.9,1.5,7.4,4.3
		c4.3,9.2,3.4,20,10.4,28c0.9,1.1,1.9,2.1,2.9,3C77.1,133,78.7,134.5,80.2,136z"/>
</g>
<g>
	<path class="st1" d="M281.3,138.8c1.7,1.1,3.5,1.9,5.3,2.5s3.7,0.9,5.7,0.9c3.1,0,5.5-0.6,7.3-1.9s2.6-3.1,2.6-5.4
		c0-1.1-0.2-2.1-0.6-2.9c-0.4-0.8-1-1.6-1.7-2.2c-0.8-0.6-1.7-1.2-2.8-1.7c-1.1-0.5-2.3-0.9-3.7-1.4l-2.7-0.8
		c-3.3-1-5.8-2.4-7.4-4.1s-2.4-3.8-2.4-6.3c0-1.6,0.3-3,1-4.2s1.6-2.1,2.7-2.9s2.4-1.3,3.8-1.7c1.4-0.3,2.8-0.5,4.3-0.5
		c2.3,0,4.6,0.3,6.6,0.9c2.1,0.6,4.1,1.5,6.1,2.7l-1.7,2.9c-1.7-1.1-3.5-1.9-5.3-2.5s-3.7-0.8-5.8-0.8c-1.1,0-2.2,0.1-3.2,0.4
		c-1,0.2-1.9,0.6-2.6,1.1s-1.3,1.1-1.7,1.8s-0.6,1.6-0.6,2.6c0,1.9,0.6,3.4,1.8,4.6s3.1,2.1,5.6,2.9l3,0.9c1.3,0.4,2.6,0.9,3.9,1.5
		s2.5,1.3,3.5,2.2c1,0.9,1.9,1.9,2.5,3.1c0.7,1.2,1,2.6,1,4.2c0,3.5-1.2,6.2-3.5,8c-2.3,1.9-5.6,2.8-9.8,2.8c-2.3,0-4.5-0.3-6.6-0.9
		c-2.1-0.6-4.2-1.5-6.2-2.7L281.3,138.8z"/>
	<path class="st1" d="M313.2,120.3c2.1-0.4,4-0.7,5.7-0.9c1.7-0.2,3.3-0.3,4.8-0.3c1.6,0,3,0.2,4.3,0.5s2.5,0.9,3.4,1.7
		c1,0.8,1.7,1.9,2.2,3.3s0.8,3.1,0.8,5.2V145h-3.2v-13.8c0-1.9-0.2-3.4-0.5-4.5c-0.4-1.1-0.8-2-1.5-2.6s-1.4-1.1-2.3-1.3
		c-0.9-0.3-2-0.4-3.3-0.4c-2.2,0-4.5,0.2-7,0.7V145h-3.2v-24.7H313.2z"/>
	<path class="st1" d="M352,145.4c-1.5,0-2.9-0.1-4.2-0.4s-2.6-0.7-3.6-1.3s-1.9-1.4-2.6-2.5c-0.7-1-1-2.3-1-3.8c0-3,1.2-5.2,3.5-6.5
		s5.4-2,9.3-2c0.7,0,1.6,0,2.6,0.1s1.8,0.2,2.5,0.3V129c0-2.5-0.6-4.2-1.7-5.3s-2.9-1.6-5.3-1.6c-0.7,0-1.4,0.1-2.1,0.2
		s-1.4,0.3-2.1,0.5s-1.4,0.4-2,0.7c-0.6,0.3-1.5,0.7-2.7,1.4l0.1-3.6c1.6-0.8,3.2-1.4,4.7-1.7c1.6-0.3,3-0.5,4.3-0.5
		c3.4,0,5.9,0.8,7.6,2.3s2.5,4,2.5,7.3v14.8c-1.6,0.6-3.1,1.1-4.8,1.4S353.7,145.4,352,145.4z M358.5,132.7
		c-0.4-0.1-1.2-0.2-2.3-0.3c-1.1-0.1-2.2-0.2-3.2-0.2c-1.2,0-2.3,0.1-3.4,0.2c-1.1,0.2-2,0.4-2.9,0.8c-0.8,0.4-1.5,0.9-2,1.5
		c-0.5,0.7-0.7,1.5-0.7,2.6c0,1,0.2,1.8,0.6,2.4c0.4,0.6,0.9,1.1,1.6,1.5s1.5,0.6,2.4,0.8c1,0.2,2,0.2,3,0.2c1.2,0,2.5-0.1,3.7-0.3
		s2.3-0.5,3.1-0.8L358.5,132.7L358.5,132.7z"/>
	<path class="st1" d="M368.2,137.5c-0.7-1.6-1-3.4-1-5.3s0.3-3.7,1-5.3c0.7-1.6,1.6-3,2.7-4.2s2.5-2.1,4-2.8c1.5-0.7,3.2-1,5-1
		c1.9,0,3.5,0.2,4.9,0.6s2.8,1,4.3,1.8l-1.5,3c-1.3-0.8-2.5-1.3-3.7-1.7c-1.1-0.3-2.5-0.5-4-0.5c-1.4,0-2.6,0.3-3.8,0.8
		c-1.1,0.5-2.1,1.2-2.9,2.1s-1.5,1.9-1.9,3.1c-0.4,1.2-0.7,2.5-0.7,4c0,1.4,0.2,2.8,0.7,4s1.1,2.3,1.9,3.1c0.8,0.9,1.8,1.6,2.9,2.1
		s2.4,0.8,3.8,0.8c1.5,0,2.9-0.2,4-0.5s2.4-0.9,3.7-1.7l1.5,3c-1.5,0.8-2.9,1.4-4.3,1.8c-1.4,0.4-3,0.6-4.9,0.6c-1.8,0-3.5-0.3-5-1
		s-2.9-1.6-4-2.7S368.9,139.1,368.2,137.5z"/>
	<path class="st1" d="M409.4,144.4c-1.6,0.7-3.3,1-5.1,1s-3.5-0.3-5.1-1s-2.9-1.6-4.1-2.8s-2.1-2.6-2.7-4.2c-0.7-1.6-1-3.3-1-5.1
		s0.3-3.5,1-5.1s1.6-3,2.7-4.2s2.5-2.2,4.1-2.9c1.6-0.7,3.3-1,5.1-1s3.5,0.4,5.1,1c1.6,0.7,2.9,1.6,4.1,2.9c1.2,1.2,2.1,2.6,2.7,4.2
		c0.7,1.6,1,3.3,1,5.1s-0.3,3.5-1,5.1s-1.6,3-2.7,4.2C412.3,142.7,411,143.7,409.4,144.4z M400.5,141.4c1.2,0.5,2.4,0.8,3.8,0.8
		s2.7-0.3,3.8-0.8c1.2-0.5,2.1-1.2,3-2.1c0.8-0.9,1.5-1.9,1.9-3.1s0.7-2.5,0.7-3.9s-0.2-2.7-0.7-3.9s-1.1-2.3-1.9-3.2
		c-0.8-0.9-1.8-1.6-3-2.1s-2.4-0.8-3.8-0.8s-2.7,0.3-3.8,0.8c-1.2,0.5-2.1,1.2-3,2.1c-0.8,0.9-1.5,2-1.9,3.2
		c-0.5,1.2-0.7,2.5-0.7,3.9s0.2,2.7,0.7,3.9s1.1,2.2,1.9,3.1C398.4,140.1,399.3,140.9,400.5,141.4z"/>
	<path class="st1" d="M455.4,131c0-1.9-0.2-3.4-0.5-4.5s-0.7-2-1.3-2.6c-0.6-0.6-1.3-1-2.2-1.3s-2-0.4-3.2-0.4c-0.5,0-1,0-1.6,0.1
		s-1.2,0.2-1.8,0.3c-0.6,0.2-1.3,0.3-1.9,0.6c-0.6,0.2-1,0.4-1.2,0.5c0.2,0.5,0.4,1.3,0.7,2.3c0.2,1,0.3,2.3,0.3,3.7v15.2h-3.2V131
		c0-1.9-0.2-3.3-0.5-4.5c-0.3-1.1-0.8-2-1.3-2.6c-0.6-0.6-1.3-1.1-2.3-1.3s-2-0.4-3.3-0.4c-1.1,0-2.1,0.1-3,0.2
		c-0.9,0.2-1.8,0.3-2.8,0.5v21.9h-3.2v-24.5l5.2-1c1.3-0.2,2.7-0.4,4-0.4c1.6,0,3,0.2,4.3,0.5s2.3,0.8,3,1.5c1.2-0.5,2.6-1,4.3-1.4
		c1.7-0.4,3.2-0.6,4.6-0.6c1.6,0,3,0.2,4.3,0.5s2.3,0.9,3.2,1.7c0.9,0.8,1.6,1.9,2.1,3.3s0.7,3.1,0.7,5.2v15.2h-3.2V131H455.4z"/>
</g>
<g>
	<path class="st2" d="M210.2,101.5c-2.7,0-5.3-0.4-7.8-1.3s-4.7-2.1-6.8-3.6c-2-1.5-3.8-3.3-5.3-5.4s-2.6-4.4-3.4-6.8
		c-3,0.2-5.3,1.3-6.7,3.3c-0.9,1.2-1.6,2.8-1.9,4.6c-0.4,1.8-0.5,3.8-0.5,5.9v12.2h-11.4V98.1c0-4.2,0.5-7.9,1.5-11s2.5-5.8,4.6-8.1
		c0.9-1,1.9-1.8,3-2.6c1.1-0.7,2.3-1.4,3.5-1.9s2.5-0.9,3.7-1.2c1.2-0.3,2.4-0.4,3.5-0.4c0.5-2.9,1.4-5.7,2.8-8.2
		c1.4-2.5,3.2-4.7,5.3-6.6c2.1-1.8,4.6-3.3,7.2-4.4c2.7-1.1,5.5-1.6,8.6-1.6c3.4,0,6.6,0.6,9.6,1.9c3,1.3,5.6,3,7.9,5.2
		c2.2,2.2,4,4.9,5.3,7.9s1.9,6.3,1.9,9.8c0,0.7,0,1.4-0.1,2c-0.1,0.7-0.1,1.3-0.2,2h8.9v11.4h-14.2c-2.3,2.8-5.1,4.9-8.4,6.5
		C217.5,100.7,214,101.5,210.2,101.5z M205,89.1c1.6,0.7,3.3,1,5.1,1s3.6-0.3,5.2-1c1.6-0.7,3.1-1.6,4.3-2.7
		c1.2-1.2,2.2-2.5,2.8-4.1c0.7-1.6,1-3.3,1-5.2c0-1.9-0.3-3.7-1-5.3s-1.6-3-2.8-4.2s-2.6-2.1-4.2-2.8c-1.6-0.7-3.4-1-5.4-1
		c-1.9,0-3.6,0.4-5.2,1.1c-1.6,0.7-2.9,1.7-4.1,2.8c-1.1,1.2-2,2.6-2.7,4.2s-1,3.4-1,5.2c0,1.8,0.3,3.6,1,5.2s1.6,3,2.7,4.1
		C202.1,87.5,203.5,88.4,205,89.1z"/>
	<path class="st2" d="M248.8,17l6.4-1.1c-0.3-0.8-0.5-1.7-0.5-2.5c0-1.8,0.5-3.4,1.5-4.8c1-1.4,2.7-2.2,5.1-2.2
		c1.8,0,3.3,0.6,4.4,1.8s1.7,2.8,1.7,4.8c0,0.7,0,1.5-0.1,2.3s-0.2,1.8-0.4,2.8l-17.8,2.7L248.8,17z M259,11.1
		c-0.5,0.5-0.8,1.2-0.8,2c0,0.9,0.1,1.6,0.3,2.2l4.9-0.8c0.1-0.4,0.2-0.9,0.2-1.3c0-0.8-0.2-1.4-0.7-2c-0.4-0.6-1.1-0.9-2-0.9
		C260.2,10.4,259.5,10.6,259,11.1z"/>
	<path class="st2" d="M241.9,81.1h50.7v-8.7c0-1.6-0.2-3.1-0.5-4.3c-0.4-1.2-0.9-2.3-1.7-3.2c-0.7-0.9-1.7-1.7-2.9-2.3
		c-1.2-0.6-2.6-0.9-4-0.9h-34c-1-1.4-1.9-3-2.6-4.8c-0.7-1.9-1.2-4-1.3-6.5l13.2-23.9H271l-12.6,23.9h24c3.7,0,6.9,0.5,9.7,1.4
		c2.8,0.9,5.2,2.5,7.2,4.7c1.7,1.8,3,4.2,3.7,7s1.1,6,1.1,9.3v19.6H242V81.1H241.9z"/>
	<path class="st2" d="M318.8,26.6h11.4v54.6h10.4v11.4h-21.8V26.6z"/>
	<path class="st2" d="M339,81.1h10.1V46.7h11.4v34.4h8.7v11.4H339V81.1z M359.1,38.3c-1.3,1-2.9,1.5-4.7,1.5c-1.8,0-3.3-0.5-4.7-1.5
		c-1.3-1-2-2.5-2-4.6c0-1.8,0.6-3.2,1.9-4.4c1.3-1.1,2.9-1.7,4.8-1.7s3.5,0.6,4.8,1.7s1.9,2.6,1.9,4.4
		C361.1,35.7,360.5,37.2,359.1,38.3z"/>
	<path class="st2" d="M367.6,81.1h17.7V50.8h11.4v30.3h8.3c1.2,0,2.4-0.1,3.7-0.4c1.3-0.3,2.4-0.8,3.5-1.6c1.1-0.8,1.9-1.8,2.6-3.1
		c0.7-1.3,1-3,1-5V50.8h11.4V71c0.1,3.7,1.1,6.5,2.9,8.3s4.3,2.7,7.4,2.7c3.3,0,5.7-0.9,7.3-2.8c1.6-1.8,2.4-4.3,2.4-7.5V41h11.3
		v29.2c0,7.9-1.7,13.7-5.2,17.4c-3.5,3.8-8.8,5.7-15.9,5.7c-1.6,0-3.1-0.1-4.6-0.4c-1.5-0.2-3-0.7-4.4-1.3c-1.4-0.6-2.7-1.4-3.9-2.4
		c-1.2-1-2.3-2.3-3.2-3.8c-2.1,2.2-4.5,3.9-7.3,5.1s-5.8,1.9-8.9,1.9h-37.4L367.6,81.1L367.6,81.1z"/>
</g>
<path class="st2" d="M130.6,9.6L27.5,37.2c-3.3,0.9-6,2.7-8.1,5c-5.4,6.2-5.9,16.1,0.7,22.7c0,0,2.8,2.8,7.3,7.3
	c0.9,0.9,1.8,1.8,2.8,2.8l4.4,4.4c1,0.9,2,1.9,3,2.9c6.4,5.4,14.4,6.6,22.7,8.1c3.1,0.6,5.9,1.5,7.4,4.3c4.3,9.2,3.4,20,10.4,28
	c0.9,1.1,1.9,2.1,2.9,3l4.4,4.4c6.2,6.2,10.2,10.2,10.2,10.2c6.5,6.5,16.4,6.1,22.6,0.7c2.3-2,4.1-4.8,5-8.1l27.6-103.1
	C154.1,17.5,142.9,6.3,130.6,9.6z"/>
</svg>
