<?xml version="1.0" encoding="utf-8"?>
<!-- Generator: Adobe Illustrator 26.0.2, SVG Export Plug-In . SVG Version: 6.00 Build 0)  -->
<svg version="1.1" id="OBJECTS" xmlns="http://www.w3.org/2000/svg" xmlns:xlink="http://www.w3.org/1999/xlink" x="0px" y="0px"
	 viewBox="0 0 314.8 291.1" style="enable-background:new 0 0 314.8 291.1;" xml:space="preserve">
<style type="text/css">
	.st0{fill:url(#SVGID_1_);}
	.st1{fill:url(#SVGID_00000019673968600497032420000018027935206539059357_);}
	.st2{fill:url(#SVGID_00000142877899959221155290000012667183307341209498_);}
	.st3{fill:url(#SVGID_00000036246648489856887530000017606317642801551004_);}
	.st4{opacity:0.15;fill:#FFCCFF;}
	.st5{fill:url(#SVGID_00000075877234291535705860000009812599499337730973_);}
	.st6{fill:url(#SVGID_00000043445572953635475970000009834935802946082715_);}
	.st7{fill:url(#SVGID_00000071553744137345076890000014958046557016012177_);}
	.st8{fill:url(#SVGID_00000063610255260603173590000000142720642343541157_);}
	.st9{fill:url(#SVGID_00000105418654151871183800000000286037990056961931_);}
	.st10{fill:#3A66EB;}
	.st11{fill:url(#SVGID_00000004535720355350167330000005110993790861268879_);}
	.st12{fill:#C19BE0;}
	.st13{fill:url(#SVGID_00000006688188564396096920000013793768926059539888_);}
	.st14{fill:#FFFFFF;}
	.st15{opacity:0.5;fill:#3A66EB;}
	.st16{fill:url(#SVGID_00000083796348228829591170000015665986107080696504_);}
	.st17{opacity:0.3;fill:url(#SVGID_00000124874950816453123060000011384899350242314161_);}
	.st18{opacity:0.3;fill:url(#SVGID_00000006683081576217154840000011974492275131862418_);}
	.st19{opacity:0.3;fill:url(#SVGID_00000117644100098909304510000013600650545664773794_);}
	.st20{opacity:0.3;fill:url(#SVGID_00000124120871840586223620000017746311393222702512_);}
	.st21{opacity:0.3;fill:url(#SVGID_00000093881560535466091130000016656750437712835211_);}
	.st22{opacity:0.3;fill:url(#SVGID_00000126294194539137105330000014397198117166070955_);}
	.st23{fill:url(#SVGID_00000085226087079909354250000009241739171763328937_);}
	.st24{fill:url(#SVGID_00000142150425809464740930000010573218961469959095_);}
	.st25{fill:#49B8F6;}
	.st26{fill:none;stroke:url(#SVGID_00000144310310874520641110000011153857562430330504_);stroke-width:0.5;stroke-miterlimit:10;}
	.st27{fill:none;stroke:url(#SVGID_00000078018969121239466180000011768607926186250664_);stroke-width:0.5;stroke-miterlimit:10;}
	.st28{fill:none;stroke:url(#SVGID_00000015343884731842935420000002761862117966512533_);stroke-width:0.5;stroke-miterlimit:10;}
</style>
<g>
	
		<linearGradient id="SVGID_1_" gradientUnits="userSpaceOnUse" x1="1750.2823" y1="3957.4507" x2="1936.1481" y2="3957.4507" gradientTransform="matrix(0.7071 0.7071 -0.7071 0.7071 1660.8271 -3955.2207)">
		<stop  offset="1.065558e-08" style="stop-color:#4833CC"/>
		<stop  offset="7.015707e-02" style="stop-color:#4833CC;stop-opacity:0.8801"/>
		<stop  offset="0.4976" style="stop-color:#4833CC;stop-opacity:0.15"/>
	</linearGradient>
	<path class="st0" d="M165.9,239.4c-24.8,0-48.2-9.7-65.7-27.2C82.6,194.6,73,171.3,73,146.4c0-24.8,9.7-48.2,27.2-65.7
		c17.6-17.6,40.9-27.2,65.7-27.2c24.8,0,48.2,9.7,65.7,27.2c17.5,17.5,27.2,40.9,27.2,65.7c0,24.8-9.7,48.2-27.2,65.7
		C214,229.7,190.7,239.4,165.9,239.4z"/>
	
		<linearGradient id="SVGID_00000170268589410522898250000006059189364681836445_" gradientUnits="userSpaceOnUse" x1="1765.9133" y1="3957.4504" x2="1920.5172" y2="3957.4504" gradientTransform="matrix(0.7071 0.7071 -0.7071 0.7071 1660.8271 -3955.2207)">
		<stop  offset="1.065558e-08" style="stop-color:#4833CC"/>
		<stop  offset="7.015707e-02" style="stop-color:#4833CC;stop-opacity:0.8801"/>
		<stop  offset="0.4976" style="stop-color:#4833CC;stop-opacity:0.15"/>
	</linearGradient>
	<path style="fill:url(#SVGID_00000170268589410522898250000006059189364681836445_);" d="M165.9,223.7c-20.6,0-40.1-8-54.7-22.6
		c-30.1-30.1-30.1-79.2,0-109.3c14.6-14.6,34-22.6,54.7-22.6c20.6,0,40.1,8,54.7,22.6c30.1,30.1,30.1,79.2,0,109.3
		C205.9,215.7,186.5,223.7,165.9,223.7z"/>
	
		<linearGradient id="SVGID_00000099635782092155030540000012257080546000016315_" gradientUnits="userSpaceOnUse" x1="1773.0906" y1="3957.4502" x2="1913.3395" y2="3957.4502" gradientTransform="matrix(0.7071 0.7071 -0.7071 0.7071 1660.8271 -3955.2207)">
		<stop  offset="1.065558e-08" style="stop-color:#4833CC"/>
		<stop  offset="7.015707e-02" style="stop-color:#4833CC;stop-opacity:0.8801"/>
		<stop  offset="0.4976" style="stop-color:#4833CC;stop-opacity:0.15"/>
	</linearGradient>
	<circle style="fill:url(#SVGID_00000099635782092155030540000012257080546000016315_);" cx="165.9" cy="146.4" r="70.1"/>
	<g>
		
			<linearGradient id="SVGID_00000087396918146033094240000006937159778316262827_" gradientUnits="userSpaceOnUse" x1="101.8293" y1="146.4296" x2="229.8737" y2="146.4296">
			<stop  offset="1.385225e-07" style="stop-color:#3885CC"/>
			<stop  offset="0.277" style="stop-color:#3F63CC"/>
			<stop  offset="0.5572" style="stop-color:#4449CC"/>
			<stop  offset="0.8072" style="stop-color:#4739CC"/>
			<stop  offset="1" style="stop-color:#4833CC"/>
		</linearGradient>
		<circle style="fill:url(#SVGID_00000087396918146033094240000006937159778316262827_);" cx="165.9" cy="146.4" r="64"/>
		<g>
			<path class="st4" d="M188.8,160.4c-10.3-4-21.8-1.7-32.7-0.3s-23.2,1.7-31.7-5.3c-8.9-7.2-11.2-20.1-19.1-28.3
				c2.3-7,5.8-13.5,10.2-19.3c0.6,0.8,1.1,1.5,1.8,2.2c8.8,9.6,23.8,9.4,36.7,7.8c12.9-1.6,27.4-3.3,37.7,4.6
				c5.9,4.5,9.4,11.5,13.5,17.7c5.9,8.8,13.8,16.5,23.3,21.1c-2,8.9-5.9,17.1-11.2,24.2C207.8,176.4,200.6,164.9,188.8,160.4z"/>
			<path class="st4" d="M110.5,178.3c11.2-3.8,23.7-7.8,34.4-2.7c6.2,3,10.6,8.6,15.5,13.4c7.2,7.1,16.1,12.7,25.9,14.9
				c1.9,0.4,3.9,0.7,5.9,0.9c-8,3.6-16.8,5.6-26.1,5.6C142.3,210.5,121.6,197.5,110.5,178.3z"/>
			<path class="st4" d="M164.6,104.1c-7.8-4-12.2-12.4-18.5-18.6c6.3-2,13-3.2,19.9-3.2c16.2,0,30.9,6,42.2,15.9
				c-4.7,1.3-9.4,3-14,4.7C184.6,106.3,173.6,108.8,164.6,104.1z"/>
		</g>
	</g>
	<g>
		
			<linearGradient id="SVGID_00000104701386904781827380000004081712051373500327_" gradientUnits="userSpaceOnUse" x1="69.2585" y1="216.8695" x2="167.2454" y2="118.8827">
			<stop  offset="0" style="stop-color:#FFFFFF"/>
			<stop  offset="0.194" style="stop-color:#FFFFFF"/>
			<stop  offset="0.2457" style="stop-color:#FFFDF9"/>
			<stop  offset="0.3149" style="stop-color:#FFF6E8"/>
			<stop  offset="0.394" style="stop-color:#FFECCC"/>
			<stop  offset="0.4804" style="stop-color:#FFDEA5"/>
			<stop  offset="0.5718" style="stop-color:#FFCB74"/>
			<stop  offset="0.6258" style="stop-color:#FFBF53"/>
			<stop  offset="1" style="stop-color:#FF7D30"/>
		</linearGradient>
		<path style="fill:url(#SVGID_00000104701386904781827380000004081712051373500327_);" d="M170.1,121.7c-3.2,3.3-6.6,6.7-10,10
			c-3.4,3.3-6.8,6.6-10.2,9.9c-16.3,15.7-32,31.6-51.2,44.2c-9.4,6.2-35.4,21.3-43.1,10l1.7,9.1c16.6,7.2,43.2-6.1,56.7-15.4
			c16.1-11.1,32.4-22.6,47.5-34.6c3.8-3,7.5-6,11.2-9.1c3.7-3.1,7.4-6.1,11.2-9.3L170.1,121.7z"/>
		
			<linearGradient id="SVGID_00000029040584406609982940000004943324029875464626_" gradientUnits="userSpaceOnUse" x1="46.7495" y1="195.8788" x2="100.4748" y2="142.1534">
			<stop  offset="0.2401" style="stop-color:#FFFFFF"/>
			<stop  offset="0.9008" style="stop-color:#FFFFFF;stop-opacity:0"/>
		</linearGradient>
		<path style="fill:url(#SVGID_00000029040584406609982940000004943324029875464626_);" d="M70.4,152.6c-3.3,3.5-6.5,7.2-9.4,11
			c-2.9,3.9-5.6,7.9-7.9,12.4c-1.1,2.2-2.1,4.5-2.9,6.9c-0.8,2.4-1.4,5-1.5,7.7c-0.1,2.7,0.3,5.7,1.8,8.4c0.8,1.3,1.8,2.6,2.9,3.6
			c1.2,1,2.5,1.8,3.9,2.4l-1.7-9.1c-1-1.4-1.4-3.3-1.5-5.3c-0.1-2,0.2-4.2,0.8-6.4c0.5-2.2,1.3-4.3,2.2-6.4c1.8-4.3,4-8.4,6.6-12.3
			c2.5-4,5.3-7.8,8.3-11.5c6-7.4,12.6-14.2,19.8-20.5C84.2,139.3,77,145.6,70.4,152.6z"/>
	</g>
	<g>
		
			<image style="overflow:visible;opacity:0.25;" width="109" height="104" xlink:href="6594ECFB.png"  transform="matrix(1 0 0 1 134.1064 70.5745)">
		</image>
		<g>
			<g>
				<g>
					
						<linearGradient id="SVGID_00000119097445248811901950000014140374534848778920_" gradientUnits="userSpaceOnUse" x1="1975.1624" y1="3946.6409" x2="1995.127" y2="3946.6409" gradientTransform="matrix(0.6554 0.7552 -0.7552 0.6554 1878.9969 -3942.8687)">
						<stop  offset="0" style="stop-color:#FFFFFF"/>
						<stop  offset="1" style="stop-color:#D8A0FF"/>
					</linearGradient>
					<path style="fill:url(#SVGID_00000119097445248811901950000014140374534848778920_);" d="M215.3,123.9l-4.9,20.7
						c-0.6,2.5-2.2,4.6-4.5,5.8l-21.6,11.2c-0.7,0.4-1.5-0.2-1.5-1l0.5-16.8L215.3,123.9z"/>
					
						<linearGradient id="SVGID_00000008129383272266595960000010820591424038019209_" gradientUnits="userSpaceOnUse" x1="8085.2383" y1="3946.635" x2="8105.2026" y2="3946.635" gradientTransform="matrix(-0.6554 -0.7552 -0.7552 0.6554 8453.5195 3632.7881)">
						<stop  offset="0" style="stop-color:#D8A0FF"/>
						<stop  offset="1" style="stop-color:#FFFFFF"/>
					</linearGradient>
					<path style="fill:url(#SVGID_00000008129383272266595960000010820591424038019209_);" d="M188.5,93l-21.2,1.9
						c-2.5,0.2-4.9,1.6-6.3,3.6l-14.1,19.8c-0.5,0.6-0.1,1.5,0.7,1.6l16.7,1.8L188.5,93z"/>
				</g>
				
					<linearGradient id="SVGID_00000000925977561569502020000001216523077856256952_" gradientUnits="userSpaceOnUse" x1="1936.8837" y1="3922.208" x2="1984.3607" y2="3922.208" gradientTransform="matrix(0.6554 0.7552 -0.7552 0.6554 1878.9969 -3942.8687)">
					<stop  offset="0" style="stop-color:#FFFFFF"/>
					<stop  offset="1" style="stop-color:#D8A0FF"/>
				</linearGradient>
				<path style="fill:url(#SVGID_00000000925977561569502020000001216523077856256952_);" d="M230,84c-25-6.2-60.1,9-65.4,36.4
					c-0.2,0.8,0.1,1.7,0.6,2.4l17.3,20c0.6,0.7,1.4,1,2.3,1C212.6,142.3,232.7,109.7,230,84z"/>
				<path class="st10" d="M176.2,143.4l-12.5-14.5c-0.6-0.7-0.5-1.7,0.2-2.3l2.7-2.3l14.7,16.9l-2.7,2.3
					C177.8,144.2,176.8,144.1,176.2,143.4z"/>
				<g>
					
						<image style="overflow:visible;opacity:0.2;" width="53" height="49" xlink:href="6594ECF9.png"  transform="matrix(1 0 0 1 154.8707 102.3388)">
					</image>
					<g>
						
							<linearGradient id="SVGID_00000181061143841730588910000001304232823789036982_" gradientUnits="userSpaceOnUse" x1="1960.6221" y1="3971.0735" x2="1960.6221" y2="3926.6465" gradientTransform="matrix(0.6554 0.7552 -0.7552 0.6554 1878.9969 -3942.8687)">
							<stop  offset="0" style="stop-color:#D8A0FF"/>
							<stop  offset="1" style="stop-color:#FFFFFF"/>
						</linearGradient>
						<path style="fill:url(#SVGID_00000181061143841730588910000001304232823789036982_);" d="M167.3,143l-4.5-5.2l17.8-16.1
							c2.2-2,4.5-3.7,7-5.2l10.3-6l1.3,1.5l-7.4,9.3c-1.8,2.3-3.9,4.4-6.1,6.3L167.3,143z"/>
					</g>
				</g>
				<path class="st12" d="M218.5,123.5c5.5-7.7,9.4-16.7,11-25.7c-1,0.5-1.9,1.3-2.5,2.2c-2.1,3.2-4.3,6.3-6.3,9.6
					c-1.2,1.8-3.8,2-5.5,0.3c-4.7-4.5-8.9-9.4-12.7-14.6c-1.4-2-0.9-4.5,1.1-5.4c3.5-1.6,6.9-3.2,10.4-4.9c1.1-0.5,1.9-1.3,2.6-2.2
					c-9.1,0.3-18.6,2.8-27,7.2C196.8,102.8,206.8,114.3,218.5,123.5z"/>
				<path class="st12" d="M194.1,89.8c0.1,0.1,0.2,0.3,0.3,0.4c0.8,0.9,2.1,1.2,3.3,0.7l11.4-5c1.1-0.5,1.7-1.6,1.7-2.8
					c-0.2,0-0.4,0.1-0.6,0.1c0,0.9-0.5,1.7-1.3,2.1l-11.4,5c-1,0.4-2.2,0.1-2.8-0.9l-1-1.6c-0.2,0.1-0.4,0.2-0.6,0.2L194.1,89.8z"/>
				<path class="st12" d="M219.3,118.9c-0.1-0.1-0.2-0.2-0.3-0.3c-0.8-0.9-0.9-2.3-0.3-3.3l6.5-10.5c0.6-1,1.8-1.5,3-1.3
					c-0.1,0.2-0.1,0.4-0.2,0.6c-0.9-0.2-1.8,0.2-2.3,1l-6.5,10.5c-0.6,0.9-0.4,2.2,0.5,2.9l1.4,1.2c-0.1,0.2-0.2,0.3-0.3,0.5
					L219.3,118.9z"/>
				
					<linearGradient id="SVGID_00000129196448742854340750000013297569614367401650_" gradientUnits="userSpaceOnUse" x1="4718.6382" y1="4842.4912" x2="4737.5977" y2="4845.418" gradientTransform="matrix(8.240000e-02 0.9966 -0.9966 8.240000e-02 4653.6416 -5015.3047)">
					<stop  offset="0" style="stop-color:#FFFFFF"/>
					<stop  offset="1" style="stop-color:#D8A0FF"/>
				</linearGradient>
				<path style="fill:url(#SVGID_00000129196448742854340750000013297569614367401650_);" d="M216.5,105.4
					c-5.3,0.4-9.9-3.5-10.3-8.8c-0.4-5.3,3.5-9.9,8.8-10.3c5.3-0.4,9.9,3.5,10.3,8.8C225.7,100.4,221.8,105,216.5,105.4z"/>
				<path class="st10" d="M221.7,100.9c-2.8,3.3-7.7,3.7-10.9,0.9c-3.3-2.8-3.7-7.7-0.9-10.9c2.8-3.3,7.7-3.7,10.9-0.9
					C224,92.7,224.5,97.6,221.7,100.9z"/>
				<g>
					<path class="st14" d="M220.7,91.7c-0.1-0.1-0.2-0.2-0.3-0.4c-0.1-0.1-0.3-0.2-0.5-0.2c-0.2,0-0.3,0.1-0.5,0.2
						c-0.2,0.2-0.2,0.6,0,0.9l0,0c0.1,0.1,0.2,0.2,0.3,0.3c0.1,0.1,0.3,0.2,0.4,0.2c0.2,0,0.3,0,0.5-0.2
						C220.9,92.3,220.9,91.9,220.7,91.7z M219.5,92L219.5,92L219.5,92L219.5,92z"/>
					<path class="st14" d="M219.1,90.6c-0.1-0.2-0.2-0.3-0.3-0.4c-1.6-0.8-3.5-0.9-5.1-0.3c-0.3,0.1-0.5,0.5-0.4,0.8
						c0,0.1,0.1,0.1,0.1,0.2c0.2,0.2,0.5,0.3,0.7,0.2c1.4-0.5,2.8-0.4,4.1,0.3c0.2,0.1,0.3,0.1,0.5,0c0.2-0.1,0.3-0.2,0.4-0.3
						C219.1,90.9,219.1,90.7,219.1,90.6z"/>
				</g>
				<path class="st15" d="M221.7,100.9c1.2-1.4,1.8-3.1,1.8-4.7c-0.2,0.1-0.3,0.3-0.4,0.5c-0.6,0.7-1.3,1.5-2.1,1.9
					c-0.8,0.4-1.8,0.3-2.6-0.1c-1.1-0.6-1.7-1.9-2.9-2.5c-1.4-0.6-3.2,0.1-4.6-0.5c-0.7-0.3-1.2-0.8-1.6-1.5
					c-0.3-0.4-0.5-0.9-0.5-1.4c-1.5,3.1-0.8,6.9,2,9.3C214,104.6,218.9,104.2,221.7,100.9z"/>
			</g>
		</g>
	</g>
	<g>
		
			<linearGradient id="SVGID_00000122717592332987177740000008555832878791137469_" gradientUnits="userSpaceOnUse" x1="196.7892" y1="178.3" x2="224.5111" y2="206.022">
			<stop  offset="0" style="stop-color:#FFFFFF"/>
			<stop  offset="1" style="stop-color:#D8A0FF"/>
		</linearGradient>
		<circle style="fill:url(#SVGID_00000122717592332987177740000008555832878791137469_);" cx="210.7" cy="192.2" r="19.6"/>
		<g>
			
				<linearGradient id="SVGID_00000067211762795029100060000009278173335610412685_" gradientUnits="userSpaceOnUse" x1="197.5421" y1="183.1174" x2="204.1085" y2="189.6838">
				<stop  offset="0" style="stop-color:#D8A0FF"/>
				<stop  offset="1" style="stop-color:#FFFFFF"/>
			</linearGradient>
			<path style="opacity:0.3;fill:url(#SVGID_00000067211762795029100060000009278173335610412685_);" d="M205.5,186.4
				c0,2.6-2.1,4.6-4.6,4.6s-4.6-2.1-4.6-4.6c0-2.6,2.1-4.6,4.6-4.6S205.5,183.8,205.5,186.4z"/>
			
				<linearGradient id="SVGID_00000023978959315238235680000001129582689240742801_" gradientUnits="userSpaceOnUse" x1="206.9652" y1="178.028" x2="209.4928" y2="180.5556">
				<stop  offset="0" style="stop-color:#D8A0FF"/>
				<stop  offset="1" style="stop-color:#FFFFFF"/>
			</linearGradient>
			<path style="opacity:0.3;fill:url(#SVGID_00000023978959315238235680000001129582689240742801_);" d="M210,179.3
				c0,1-0.8,1.8-1.8,1.8c-1,0-1.8-0.8-1.8-1.8c0-1,0.8-1.8,1.8-1.8C209.2,177.5,210,178.3,210,179.3z"/>
			
				<linearGradient id="SVGID_00000143576754443440741650000005118815898338829246_" gradientUnits="userSpaceOnUse" x1="221.1755" y1="179.8153" x2="223.7031" y2="182.3429">
				<stop  offset="0" style="stop-color:#D8A0FF"/>
				<stop  offset="1" style="stop-color:#FFFFFF"/>
			</linearGradient>
			
				<circle style="opacity:0.3;fill:url(#SVGID_00000143576754443440741650000005118815898338829246_);" cx="222.4" cy="181.1" r="1.8"/>
			
				<linearGradient id="SVGID_00000038376947734442488480000010072920572596323222_" gradientUnits="userSpaceOnUse" x1="200.4861" y1="202.5181" x2="203.0137" y2="205.0457">
				<stop  offset="0" style="stop-color:#D8A0FF"/>
				<stop  offset="1" style="stop-color:#FFFFFF"/>
			</linearGradient>
			<path style="opacity:0.3;fill:url(#SVGID_00000038376947734442488480000010072920572596323222_);" d="M203.5,203.8
				c0,1-0.8,1.8-1.8,1.8c-1,0-1.8-0.8-1.8-1.8s0.8-1.8,1.8-1.8C202.7,202,203.5,202.8,203.5,203.8z"/>
			
				<linearGradient id="SVGID_00000060727135869931297450000016691782732090529194_" gradientUnits="userSpaceOnUse" x1="212.8098" y1="182.1201" x2="217.8365" y2="187.1469">
				<stop  offset="0" style="stop-color:#D8A0FF"/>
				<stop  offset="1" style="stop-color:#FFFFFF"/>
			</linearGradient>
			<path style="opacity:0.3;fill:url(#SVGID_00000060727135869931297450000016691782732090529194_);" d="M218.9,184.6
				c0,2-1.6,3.6-3.6,3.6c-2,0-3.6-1.6-3.6-3.6c0-2,1.6-3.6,3.6-3.6C217.3,181.1,218.9,182.7,218.9,184.6z"/>
			
				<linearGradient id="SVGID_00000179621606095038371370000002703560398521080244_" gradientUnits="userSpaceOnUse" x1="219.2774" y1="200.5923" x2="224.6237" y2="205.9385">
				<stop  offset="0" style="stop-color:#D8A0FF"/>
				<stop  offset="1" style="stop-color:#FFFFFF"/>
			</linearGradient>
			<path style="opacity:0.3;fill:url(#SVGID_00000179621606095038371370000002703560398521080244_);" d="M228.6,200
				c-1.2-1-2.7-1.5-4.4-1.5c-3.9,0-7,3.2-7,7c0,1.7,0.6,3.2,1.6,4.4C223.2,208,226.7,204.5,228.6,200z"/>
		</g>
	</g>
</g>
<g>
	
		<linearGradient id="SVGID_00000069375772848007019250000005800324381232948618_" gradientUnits="userSpaceOnUse" x1="254.2062" y1="38.1852" x2="286.4474" y2="38.1852">
		<stop  offset="1.385225e-07" style="stop-color:#3885CC"/>
		<stop  offset="0.277" style="stop-color:#3F63CC"/>
		<stop  offset="0.5572" style="stop-color:#4449CC"/>
		<stop  offset="0.8072" style="stop-color:#4739CC"/>
		<stop  offset="1" style="stop-color:#4833CC"/>
	</linearGradient>
	<path style="fill:url(#SVGID_00000069375772848007019250000005800324381232948618_);" d="M286.4,22.1c0.5,0.5-26.8,30.5-27.8,31.5
		s-2.6,1-3.7,0s-1-2.6,0-3.7C256,48.9,286,21.6,286.4,22.1z"/>
	
		<linearGradient id="SVGID_00000029723893747220311540000010697781105718994312_" gradientUnits="userSpaceOnUse" x1="1770.0507" y1="-3434.7627" x2="1797.1949" y2="-3434.7627" gradientTransform="matrix(0.7071 -0.7071 0.7071 0.7071 1432.6774 3733.0742)">
		<stop  offset="1.385225e-07" style="stop-color:#3885CC"/>
		<stop  offset="0.277" style="stop-color:#3F63CC"/>
		<stop  offset="0.5572" style="stop-color:#4449CC"/>
		<stop  offset="0.8072" style="stop-color:#4739CC"/>
		<stop  offset="1" style="stop-color:#4833CC"/>
	</linearGradient>
	<path style="fill:url(#SVGID_00000029723893747220311540000010697781105718994312_);" d="M274.8,33.6c0.3,0.3-16.4,18.6-17,19.2
		s-1.6,0.6-2.2,0c-0.6-0.6-0.6-1.6,0-2.2C256.2,49.9,274.5,33.3,274.8,33.6z"/>
</g>
<path class="st25" d="M99.7,50.3h-1.5v-1.5c0-0.5-0.4-1-1-1l0,0c-0.5,0-1,0.4-1,1v1.5h-1.5c-0.5,0-1,0.4-1,1l0,0c0,0.5,0.4,1,1,1
	h1.5v1.5c0,0.5,0.4,1,1,1l0,0c0.5,0,1-0.4,1-1v-1.5h1.5c0.5,0,1-0.4,1-1l0,0C100.6,50.7,100.2,50.3,99.7,50.3z"/>
<path class="st25" d="M25.9,112.9h-1.5v-1.5c0-0.5-0.4-1-1-1l0,0c-0.5,0-1,0.4-1,1v1.5h-1.5c-0.5,0-1,0.4-1,1v0c0,0.5,0.4,1,1,1h1.5
	v1.5c0,0.5,0.4,1,1,1l0,0c0.5,0,1-0.4,1-1v-1.5h1.5c0.5,0,1-0.4,1-1v0C26.9,113.3,26.5,112.9,25.9,112.9z"/>
<path class="st25" d="M271.2,92h-1.5v-1.5c0-0.5-0.4-1-1-1l0,0c-0.5,0-1,0.4-1,1V92h-1.5c-0.5,0-1,0.4-1,1l0,0c0,0.5,0.4,1,1,1h1.5
	v1.5c0,0.5,0.4,1,1,1l0,0c0.5,0,1-0.4,1-1V94h1.5c0.5,0,1-0.4,1-1l0,0C272.2,92.4,271.8,92,271.2,92z"/>
<path class="st25" d="M156.2,257.9h-1.5v-1.5c0-0.5-0.4-1-1-1l0,0c-0.5,0-1,0.4-1,1v1.5h-1.5c-0.5,0-1,0.4-1,1l0,0c0,0.5,0.4,1,1,1
	h1.5v1.5c0,0.5,0.4,1,1,1l0,0c0.5,0,1-0.4,1-1v-1.5h1.5c0.5,0,1-0.4,1-1l0,0C157.2,258.3,156.7,257.9,156.2,257.9z"/>
<linearGradient id="SVGID_00000078757423166441296270000001125602922481431973_" gradientUnits="userSpaceOnUse" x1="91.4319" y1="261.7922" x2="97.6743" y2="261.7922">
	<stop  offset="0" style="stop-color:#F3AF2D"/>
	<stop  offset="8.762717e-03" style="stop-color:#F3AD2F"/>
	<stop  offset="0.2403" style="stop-color:#F67F5C"/>
	<stop  offset="0.4618" style="stop-color:#F85B7F"/>
	<stop  offset="0.6682" style="stop-color:#FA4198"/>
	<stop  offset="0.8536" style="stop-color:#FB31A8"/>
	<stop  offset="1" style="stop-color:#FB2CAD"/>
</linearGradient>
<circle style="fill:none;stroke:url(#SVGID_00000078757423166441296270000001125602922481431973_);stroke-width:0.5;stroke-miterlimit:10;" cx="94.6" cy="261.8" r="2.9"/>
<linearGradient id="SVGID_00000164499692534906969100000014150227687183182230_" gradientUnits="userSpaceOnUse" x1="274.9719" y1="167.5035" x2="281.2143" y2="167.5035">
	<stop  offset="0" style="stop-color:#F3AF2D"/>
	<stop  offset="8.762717e-03" style="stop-color:#F3AD2F"/>
	<stop  offset="0.2403" style="stop-color:#F67F5C"/>
	<stop  offset="0.4618" style="stop-color:#F85B7F"/>
	<stop  offset="0.6682" style="stop-color:#FA4198"/>
	<stop  offset="0.8536" style="stop-color:#FB31A8"/>
	<stop  offset="1" style="stop-color:#FB2CAD"/>
</linearGradient>
<circle style="fill:none;stroke:url(#SVGID_00000164499692534906969100000014150227687183182230_);stroke-width:0.5;stroke-miterlimit:10;" cx="278.1" cy="167.5" r="2.9"/>
<linearGradient id="SVGID_00000090981369112323463590000005783864499567500469_" gradientUnits="userSpaceOnUse" x1="217.6931" y1="33.5533" x2="223.9356" y2="33.5533">
	<stop  offset="0" style="stop-color:#F3AF2D"/>
	<stop  offset="8.762717e-03" style="stop-color:#F3AD2F"/>
	<stop  offset="0.2403" style="stop-color:#F67F5C"/>
	<stop  offset="0.4618" style="stop-color:#F85B7F"/>
	<stop  offset="0.6682" style="stop-color:#FA4198"/>
	<stop  offset="0.8536" style="stop-color:#FB31A8"/>
	<stop  offset="1" style="stop-color:#FB2CAD"/>
</linearGradient>
<path style="fill:none;stroke:url(#SVGID_00000090981369112323463590000005783864499567500469_);stroke-width:0.5;stroke-miterlimit:10;" d="
	M223.7,33.6c0,1.6-1.3,2.9-2.9,2.9c-1.6,0-2.9-1.3-2.9-2.9c0-1.6,1.3-2.9,2.9-2.9C222.4,30.7,223.7,32,223.7,33.6z"/>
</svg>
